<?xml version="1.0" standalone="no"?><!DOCTYPE svg PUBLIC "-//W3C//DTD SVG 1.1//EN" "http://www.w3.org/Graphics/SVG/1.1/DTD/svg11.dtd"><svg width="200" height="200" viewBox="0 0 200 200" version="1.1" xmlns="http://www.w3.org/2000/svg" xmlns:xlink="http://www.w3.org/1999/xlink"><defs><style type="text/css"><![CDATA[
@font-face { font-family: ifont; src: url("//at.alicdn.com/t/font_1442373896_4754455.eot?#iefix") format("embedded-opentype"), url("//at.alicdn.com/t/font_1442373896_4754455.woff") format("woff"), url("//at.alicdn.com/t/font_1442373896_4754455.ttf") format("truetype"), url("//at.alicdn.com/t/font_1442373896_4754455.svg#ifont") format("svg"); }

]]></style></defs><g class="transform-group"><g transform="scale(0.1953125, 0.1953125)"><path d="M870.365003 358.764964l0 613.640074c0 28.497217-22.997754 51.594961-51.594961 51.594961L205.229958 1024c-28.497217 0-51.594961-22.997754-51.594961-51.594961L153.634997 358.764964c0-28.497217 22.697783-51.594961 51.195-51.594961 28.297237 0 51.195 23.297725 51.195 51.294991l0 563.045015 511.950005 0L767.975002 358.464994c0-28.297237 22.697783-51.294991 51.195-51.294991C847.46724 307.170003 870.365003 330.167757 870.365003 358.764964zM921.060053 102.390001 767.975002 102.390001 767.975002 51.195C767.975002 22.697783 745.177229 0 716.979982 0L307.020018 0c-27.597305 0-50.99502 22.897764-50.99502 51.195l0 51.195L102.939947 102.390001c-28.997168 0-51.694952 22.897764-51.694952 51.195 0 28.497217 22.797774 51.195 50.89503 51.195l819.819939 0c28.097256 0 50.89503-22.897764 50.89503-51.195C972.755004 125.087784 949.65726 102.390001 921.060053 102.390001z" fill="#56abe4"></path></g></g></svg>