<?xml version="1.0" standalone="no"?><!DOCTYPE svg PUBLIC "-//W3C//DTD SVG 1.1//EN" "http://www.w3.org/Graphics/SVG/1.1/DTD/svg11.dtd"><svg width="200" height="200" viewBox="0 0 200 200" version="1.1" xmlns="http://www.w3.org/2000/svg" xmlns:xlink="http://www.w3.org/1999/xlink"><defs><style type="text/css"><![CDATA[
@font-face { font-family: ifont; src: url("http://at.alicdn.com/t/font_1442373896_4754455.eot?#iefix") format("embedded-opentype"), url("http://at.alicdn.com/t/font_1442373896_4754455.woff") format("woff"), url("http://at.alicdn.com/t/font_1442373896_4754455.ttf") format("truetype"), url("http://at.alicdn.com/t/font_1442373896_4754455.svg#ifont") format("svg"); }

]]></style></defs><g class="transform-group"><g transform="scale(0.1953125, 0.1953125)"><path d="M554.164706 512 789.082353 277.082353C801.129412 265.035294 801.129412 246.964706 789.082353 234.917647 777.035294 222.870588 758.964706 222.870588 746.917647 234.917647L512 469.835294 277.082353 234.917647C265.035294 222.870588 246.964706 222.870588 234.917647 234.917647 222.870588 246.964706 222.870588 265.035294 234.917647 277.082353L469.835294 512 234.917647 746.917647C222.870588 758.964706 222.870588 777.035294 234.917647 789.082353 240.941176 795.105882 249.976471 798.117647 256 798.117647 262.023529 798.117647 271.058824 795.105882 277.082353 789.082353L512 554.164706 746.917647 789.082353C752.941176 795.105882 761.976471 798.117647 768 798.117647 774.023529 798.117647 783.058824 795.105882 789.082353 789.082353 801.129412 777.035294 801.129412 758.964706 789.082353 746.917647L554.164706 512Z" fill="#979797"></path></g></g></svg>