<?xml version="1.0" standalone="no"?><!DOCTYPE svg PUBLIC "-//W3C//DTD SVG 1.1//EN" "http://www.w3.org/Graphics/SVG/1.1/DTD/svg11.dtd"><svg width="200" height="200" viewBox="0 0 200 200" version="1.1" xmlns="http://www.w3.org/2000/svg" xmlns:xlink="http://www.w3.org/1999/xlink"><defs><style type="text/css"><![CDATA[
@font-face { font-family: ifont; src: url("http://at.alicdn.com/t/font_1442373896_4754455.eot?#iefix") format("embedded-opentype"), url("http://at.alicdn.com/t/font_1442373896_4754455.woff") format("woff"), url("http://at.alicdn.com/t/font_1442373896_4754455.ttf") format("truetype"), url("http://at.alicdn.com/t/font_1442373896_4754455.svg#ifont") format("svg"); }

]]></style></defs><g class="transform-group"><g transform="scale(0.1953125, 0.1953125)"><path d="M506.878 338.104q-47.314 0-87.269 23.343t-63.301 63.3-23.343 87.269 23.343 87.269 63.301 63.301 87.269 23.343 87.269-23.343 63.301-63.301 23.343-87.269-23.343-87.269-63.301-63.3-87.269-23.343zM752.4 512q0 66.808-32.92 123.234t-89.347 89.347-123.234 32.92-123.234-32.92-89.347-89.347-32.92-123.234 32.92-123.234 89.347-89.347 123.234-32.92 123.234 32.92 89.347 89.347 32.92 123.234z" fill="#555555"></path></g></g></svg>