<?xml version="1.0" standalone="no"?><!DOCTYPE svg PUBLIC "-//W3C//DTD SVG 1.1//EN" "http://www.w3.org/Graphics/SVG/1.1/DTD/svg11.dtd"><svg width="200" height="200" viewBox="0 0 200 200" version="1.1" xmlns="http://www.w3.org/2000/svg" xmlns:xlink="http://www.w3.org/1999/xlink"><defs><style type="text/css"><![CDATA[
@font-face { font-family: ifont; src: url("http://at.alicdn.com/t/font_1442373896_4754455.eot?#iefix") format("embedded-opentype"), url("http://at.alicdn.com/t/font_1442373896_4754455.woff") format("woff"), url("http://at.alicdn.com/t/font_1442373896_4754455.ttf") format("truetype"), url("http://at.alicdn.com/t/font_1442373896_4754455.svg#ifont") format("svg"); }

]]></style></defs><g class="transform-group"><g transform="scale(0.2, 0.2)"><path d="M900.8282 46.2946H129.07777745576067c-28.4219 0-51.4502 23.0364-51.4502 51.4471v771.720773315692c0 28.4127 23.0283 51.4471 51.4502 51.4471h771.750394998386c28.4219 0 51.4502-23.0354 51.4502-51.4471V97.74173110630989C952.2784 69.331 929.2501 46.2946 900.8282 46.2946zM772.2871 286.7706 494.1852 739.9973c-9.6628 15.7593-26.3272 25.6656-44.5996 26.51-0.8545 0.042-1.6909 0.052-2.5294 0.052-17.334 0-33.7305-8.2244-44.2648-22.3429L260.4651 553.4478c-18.5072-24.8112-13.6823-60.1482 10.7522-78.9385 24.4854-18.8072 59.2722-13.8756 77.7785 10.9106l93.6054 125.4549 235.429-383.6829c16.2117-26.3931 50.4269-34.4656 76.4893-18.0448C780.5448 225.592 788.4977 260.3515 772.2871 286.7706z" fill="#555555"></path></g></g></svg>