<?xml version="1.0" standalone="no"?><!DOCTYPE svg PUBLIC "-//W3C//DTD SVG 1.1//EN" "http://www.w3.org/Graphics/SVG/1.1/DTD/svg11.dtd"><svg width="200" height="200" viewBox="0 0 200 200" version="1.1" xmlns="http://www.w3.org/2000/svg" xmlns:xlink="http://www.w3.org/1999/xlink"><defs><style type="text/css"><![CDATA[
@font-face { font-family: ifont; src: url("http://at.alicdn.com/t/font_1442373896_4754455.eot?#iefix") format("embedded-opentype"), url("http://at.alicdn.com/t/font_1442373896_4754455.woff") format("woff"), url("http://at.alicdn.com/t/font_1442373896_4754455.ttf") format("truetype"), url("http://at.alicdn.com/t/font_1442373896_4754455.svg#ifont") format("svg"); }

]]></style></defs><g class="transform-group"><g transform="scale(0.1953125, 0.1953125)"><path d="M819.071 128.16h-619.617c-93.209 0-98.703 109.659-98.703 109.659v619.617c0 65.802 98.703 93.209 98.703 93.209h455.122l263.197-257.725v-466.092c5.482-76.766-98.703-98.703-98.703-98.703zM616.189 731.34h-323.522c-16.453 0-32.899-10.973-32.899-27.411s16.453-27.411 32.899-27.411h323.522c16.453 0 32.899 10.973 32.899 27.411s-16.453 27.411-32.899 27.411zM616.189 566.839h-323.522c-16.453 0-32.899-10.973-32.899-27.411s16.453-27.411 32.899-27.411h323.522c16.453 0 32.899 10.973 32.899 27.411s-16.453 27.411-32.899 27.411zM671.026 402.341h-378.35c-16.453 0-32.899-10.973-32.899-27.411s16.453-27.411 32.899-27.411h378.35c16.453 0 32.899 10.973 32.899 27.411s-16.453 27.411-32.899 27.411z" fill="#555555"></path></g></g></svg>